<svg width="14" height="15" viewBox="0 0 14 15" fill="none" xmlns="http://www.w3.org/2000/svg">
<path d="M6.38263 1.25537C6.59596 0.692707 7.40329 0.692707 7.61729 1.25537L8.99729 5.07804C9.09396 5.33137 9.33996 5.50004 9.61462 5.50004H13.006C13.6326 5.50004 13.906 6.28004 13.4133 6.66204L11 8.83337C10.8919 8.91648 10.8129 9.03169 10.7743 9.16248C10.7357 9.29327 10.7396 9.43291 10.7853 9.56137L11.6666 13.2967C11.8813 13.8967 11.1866 14.412 10.6613 14.0427L7.38329 11.9627C7.27103 11.8838 7.13717 11.8415 6.99996 11.8415C6.86275 11.8415 6.72888 11.8838 6.61663 11.9627L3.33863 14.0427C2.81396 14.412 2.11863 13.896 2.33329 13.2967L3.21463 9.56137C3.26034 9.43291 3.2642 9.29327 3.22563 9.16248C3.18707 9.03169 3.10806 8.91648 2.99996 8.83337L0.586626 6.66204C0.0932929 6.28004 0.367959 5.50004 0.993293 5.50004H4.38463C4.51815 5.50049 4.64867 5.46038 4.7589 5.38502C4.86914 5.30967 4.9539 5.20262 5.00196 5.07804L6.38196 1.25537H6.38263Z" fill="#F7AB3A" stroke="#F7AB3A" stroke-width="0.5" stroke-linecap="round" stroke-linejoin="round"/>
</svg>
